<svg xmlns="http://www.w3.org/2000/svg" width="164" height="18" viewBox="0 0 164 18"><g color="#000"><path d="M14 1v1h-1v1h-1v1h-1v2h2v1h-1v1h-1v1h-1v1H9v1H8v1H7v1H6v1H5v1H4v3h1v-1h1v-1h1v-1h1v-1h1v-1h1v-1h1v-1h1v-1h1V9h1V8h1V7h1V6h-2V4h1V3h1V2h1V1zm9 0v12h2V5h12V1zm28 0v2H41v4h2V5h8v4H39v8h4v-6h8v6h4V1zm18 0v2H57v14h4V5h2v12h4V5h2v12h4V1zm8 0v12h-2v4h16v-4H79v-2h12V7H79V5h12V1zm33 0v14H96v2h16V1zm18 0v14h-14v2h16V1zm10 0v8h2V1zm24 0v6h-4v8h-6v2h8V9h4V1zM35 7v8H21v2h16V7zm113 0v2h4V7zM1 9v2h6V9zm26 0v2h6V9zm117 0v6h-12v2h14V9z" style="marker:none" overflow="visible"/><path d="M4 0v2H3v2H2v2H1v2H0v2h6v2H5v2H4v2h1v-1h1v-1h1v-1h1v-1h1v-1h1v-1h1V9h1V8h1V7h1V6h1V5h-3V4h1V3h1V2h1V1h1V0zm0 16H3v1h1zM20 0v16h16V6H26v4h6v2h-8V4h12V0zm18 0v16h4v-6h8v6h4V0zm18 0v16h4V4h2v12h4V4h2v12h4V0zm18 0v16h16v-4H78v-2h12V6H78V4h12V0zm29 0v8h-8v8h16V0zm10 0v16h16V0zm18 0v16h14V8h-6V0zm16 0v8h4v8h8V8h4V0zM42 4h8v2h-8z" style="marker:none" fill="#fff" overflow="visible"/><path d="M5 2v2H4v2h1v1h1V6h1v1h1V6h1V5h1V4h1V3h1V2H5zm3 5v1h1V7H8zM7 7H6v1h1V7zM5 7H4v1h1V7zM4 7V6H3v1h1zm101-5v8h-8v4h1v-3h8V9h1V8h-1V7h1v1h1V7h1V2h-4zm3 6v1h1V8h-1zm7-6v12h1V9h1V8h-1V7h1v1h1V7h1V6h4v4h-3v1h4V9h1V8h-1V7h1v1h1V7h1V2h-12zm11 6v1h1V8h-1zm-8 0v1h1V8h-1zm15-6v12h1V9h1V8h-1V7h1v1h1V7h1V2h-4zm3 6v1h1V8h-1zm13-6v4h4v8h1V9h1V8h-1V7h1v1h1V7h1V6h4V2h-12zm7 6v1h1V8h-1zM10 7v1h1V7h-1zm128 3v1h5v-1h-5z" style="marker:none" fill="#2f7f6f" overflow="visible"/><path d="M4 6v1h1V6H4zm1 1v1h1V7H5zm1 0h1V6H6v1zm1 0v1h1V7H7zm1 0h1V6H8v1zm1 0v1H8v2h1V9h1V7H9zM4 7H3v1h1V7zm102 0v1h1V7h-1zm1 1v1h-1v2h-8v3h11V9h-1V8h-1zm1 0h1V7h-1v1zm8-1v1h1V7h-1zm1 1v1h-1v5h11V9h-1V8h-1v1h-1v2h-4v-1h-1V9h-1V8h-1zm1 0h1V7h-1v1zm7 0V7h-1v1h1zm1 0h1V7h-1v1zm8-1v1h1V7h-1zm1 1v1h-1v5h9v-3h-5v-1h-1V9h-1V8h-1zm1 0h1V7h-1v1zm18-1v1h1V7h-1zm1 1v1h-1v5h3V9h-1V8h-1zm1 0h1V7h-1v1z" style="marker:none" fill="#cf0" overflow="visible"/></g></svg>